PathFileType	4	(X/Y/Z)	C:/Users/beibeiliu/ov580/test_trc/User3\sequence.11_training_dense_right.trc
DataRate	CameraRate	NumFrames	NumMarkers	Units	OrigDataRate	OrigDataStartFrame	OrigNumFrames
120	120	18	19	mm	120	99	196
Frame#	Time	ThumbCMC			ThumbMCP			ThumbIP			ThumbTip			IndexMCP			IndexPIP			IndexTip			MiddleMCP			MiddlePIP			MiddleTip			RingMCP			RingPIP			RingTip			PinkyMCP			PinkyPIP			PinkyTip			BackHand1			BackHand2			BackHand3	
		X0	Y0	Z0	X1	Y1	Z1	X2	Y2	Z2	X3	Y3	Z3	X4	Y4	Z4	X5	Y5	Z5	X6	Y6	Z6	X7	Y7	Z7	X8	Y8	Z8	X9	Y9	Z9	X10	Y10	Z10	X11	Y11	Z11	X12	Y12	Z12	X13	Y13	Z13	X14	Y14	Z14	X15	Y15	Z15	X16	Y16	Z16	X17	Y17	Z17	X18	Y18	Z18	
98	0.816667	160.909	7.85231	41.6876	150.822	21.3586	22.1068	143.178	37.7766	-0.204202	136.899	56.2365	-13.8506	155.79	-6.91534	-37.2971	149.916	-1.01549	-61.122	146.508	8.34217	-85.651	166.297	-32.598	-45.4411	162.576	-32.6013	-72.4198	159.035	-31.0437	-98.2156	165.661	-55.4969	-32.9052	164.084	-60.9362	-55.3568	162.872	-66.4128	-80.2227	163.64	-79.1162	-11.8636	158.629	-87.9808	-35.2018	157.233	-102.153	-50.2853	183.806	-44.2425	11.1893	195.919	-45.4989	38.822	181.716	-11.6534	19.682	
99	0.825	153.713	7.21387	41.2021	141.355	17.9593	21.9493	131.766	37.6037	-0.561841	123.536	54.8721	-10.7353	151.094	-1.84267	-35.3299	145.573	4.3633	-57.5153	143.258	9.16849	-85.0004	166.857	-25.0185	-44.7559	164.325	-27.7356	-68.7432	162.148	-25.7384	-99.402	170.152	-50.3245	-35.459	171.432	-57.5756	-58.3982	171.898	-62.8335	-82.6368	171.966	-75.9862	-16.5579	169.785	-88.2274	-33.6593	171.773	-96.5482	-53.5401	184.445	-41.7238	9.27821	197.033	-41.6128	38.7393	177.514	-9.26869	23.4774	
100	0.833333	145.899	2.87915	42.4261	131.807	17.2211	23.654	118.656	33.2468	5.13728	110.009	45.853	-11.1255	149.762	-3.44142	-36.0639	143.222	6.03156	-60.3069	141.282	9.19686	-81.1561	167.957	-23.7269	-43.0227	167.927	-24.0089	-70.4121	166.258	-21.6107	-98.4282	175.424	-45.6157	-33.6029	177.473	-48.3426	-58.6802	179.846	-53.5092	-86.9893	177.514	-68.588	-16.1892	178.429	-77.4902	-34.967	183.937	-91.3886	-54.2911	184.237	-34.2616	11.7939	195.839	-36.429	38.9374	174.903	-6.44454	24.3201	
101	0.841667	138.118	2.28628	40.5631	124.106	10.4585	21.579	107.795	30.292	3.80301	96.0149	39.8468	-2.65481	143.903	1.78392	-35.6417	138.12	7.88643	-56.8719	136.666	12.7908	-82.792	168.561	-17.8027	-43.8146	166.842	-15.6665	-67.0605	168.279	-11.892	-100.569	176.694	-37.2165	-35.2636	180.995	-41.3367	-58.2173	185.253	-42.8817	-84.4136	181.649	-61.5931	-16.8911	186.725	-71.9739	-38.0527	195.851	-79.8321	-56.2343	185.738	-31.1834	15.4662	192.06	-29.2847	42.371	170.706	-5.75455	25.7814	
102	0.85	134.374	-4.66331	42.5503	116.104	7.09976	25.6579	97.4239	23.1061	6.00311	85.2671	28.2593	-2.55699	142.489	-0.860764	-32.6402	136.318	6.05584	-55.3313	132.975	13.436	-79.5246	168.384	-14.4362	-39.9265	169.516	-11.1661	-67.8026	172.49	-6.85956	-100.001	180.096	-35.3785	-32.0964	184.291	-34.7737	-55.7958	190.751	-34.455	-81.0194	188.562	-57.0147	-19.9706	194.351	-65.3404	-36.6324	204.991	-71.3402	-53.7514	184.725	-25.5657	11.4929	192.822	-25.6805	44.621	166.722	-5.20777	28.2145	
103	0.858333	127.397	-7.26707	45.4924	110.842	-0.190574	26.407	92.408	11.8526	7.77631	75.5366	22.9229	-4.58191	140.495	-1.97467	-35.1723	129.899	7.32831	-56.8798	125.211	16.3029	-78.4977	168.749	-12.8265	-38.7076	166.631	-5.01194	-66.2091	168.392	2.2484	-94.3025	181.599	-28.6886	-33.6016	187.847	-29.1238	-53.3627	195.71	-27.0268	-78.1696	194.763	-52.6136	-19.1095	199.843	-56.42	-34.786	212.297	-59.3742	-52.1185	185.526	-23.4365	14.2855	189.104	-21.211	45.3048	158.547	-2.24328	30.5384	
104	0.866667	127.111	-15.2984	45.4984	104.592	-3.17017	26.8541	87.8267	4.7291	6.50511	72.1818	10.409	-4.05477	134.258	-0.922375	-30.2894	125.682	7.47082	-54.8915	124.852	13.6037	-77.1388	163.814	-4.86349	-38.6612	167.82	-1.0895	-62.8105	170.711	7.27245	-91.2185	184.041	-23.8674	-31.2064	188.436	-18.7654	-53.8717	200.062	-18.0911	-77.6576	196.596	-45.3268	-15.491	206.052	-49.6385	-33.8438	218.528	-48.3765	-55.1946	183.543	-18.9691	19.2853	187.545	-20.4615	48.2527	157.756	-6.74849	32.6645	
105	0.875	124.316	-17.6095	43.9901	102.405	-10.2381	25.9427	82.3732	-1.24909	5.22509	68.0151	3.41463	-7.59844	133.449	-2.07629	-32.2576	124.912	4.04406	-53.324	121.835	11.8874	-74.2327	164.797	-4.73496	-36.8104	166.969	0.875092	-59.0271	169.344	11.5686	-89.8122	183.136	-18.2971	-31.9991	189.061	-13.285	-52.9695	198.053	-9.56685	-73.2738	199.136	-40.6197	-15.1822	209.504	-42.3462	-36.0343	222.094	-42.1563	-51.1149	181.852	-17.4986	17.4086	183.738	-16.7628	48.1267	151.806	-6.25884	30.7478	
106	0.883333	120.04	-20.3503	44.8643	101.598	-15.8476	25.9851	82.7722	-8.88381	3.14876	68.8969	-7.76746	-7.93576	136.133	-5.77769	-33.0506	128.41	0.00638	-52.6759	122.69	10.0016	-76.5878	167.219	-5.52015	-37.1968	168.428	2.80324	-61.3856	170.342	13.9631	-91.8325	184.221	-17.0253	-29.8611	190.693	-13.0038	-49.2986	197.95	-7.19501	-72.1348	202.137	-39.7347	-11.8761	215.826	-41.2404	-33.0405	228.111	-40.0856	-45.9287	185.819	-16.0603	18.49	187.103	-17.1646	49.9525	152.14	-6.71033	30.27	
107	0.891667	120.062	-24.8967	44.194	104.887	-23.1989	20.9241	83.876	-15.9728	-0.442906	66.4212	-13.14	-10.7863	134.071	-7.26239	-31.5389	123.259	-0.730258	-54.8028	120.074	6.82005	-79.9063	165.04	-4.89923	-38.0703	165.745	0.895232	-61.1463	171.822	9.12477	-87.4821	184.633	-18.6003	-28.7799	196.415	-13.4151	-50.7225	200.429	-8.01599	-72.5185	205.171	-38.1723	-13.6661	214.579	-38.8635	-27.9936	228.093	-35.2582	-46.8149	184.566	-17.0113	19.4482	182.986	-15.0669	47.197	150.761	-8.38387	32.3812	
108	0.9	123.125	-28.8375	43.1123	102.339	-25.5371	19.0389	80.819	-21.4832	0.64954	67.8354	-20.2973	-14.3641	135.848	-11.9728	-31.5686	125.899	-5.89265	-58.2671	119.836	0.274423	-80.9846	163.89	-10.2922	-33.5971	170.176	-3.6797	-60.2066	169.402	5.34985	-89.3142	187.295	-20.2944	-30.8496	197.564	-16.2286	-49.5752	206.261	-9.8321	-73.6889	206.825	-38.3096	-15.0777	214.956	-39.688	-27.9008	232.312	-36.0309	-43.7882	184.59	-18.7638	20.8462	180.703	-14.6252	47.8408	150.642	-8.5193	31.5908	
109	0.908333	120.824	-29.9025	42.0207	104.949	-30.2567	20.7206	83.1249	-27.1629	-3.75982	68.8663	-26.5873	-17.1501	134.678	-18.0439	-31.1171	126.637	-15.241	-55.4585	121.679	-7.46772	-82.3782	168.407	-14.2639	-39.2546	165.602	-9.6521	-62.8494	171.966	-1.73849	-89.8492	190.66	-25.2859	-28.9845	197.895	-21.6108	-47.2035	205.839	-15.8858	-71.9426	205.214	-39.3245	-13.2999	219.073	-42.1078	-28.609	231.862	-39.3298	-44.3856	182.823	-19.8234	20.1103	183.942	-15.7172	48.201	150.917	-13.845	32.1592	
110	0.916667	120.711	-30.5403	37.6737	103.531	-33.3313	17.9504	82.6305	-31.1432	-1.23584	66.8675	-30.2473	-16.3771	139.8	-22.8598	-33.8757	128.802	-21.2917	-60.5905	120.729	-16.0214	-81.6907	164.975	-18.3588	-36.9572	169.905	-14.5852	-67.1907	172.498	-7.1686	-93.9004	189.666	-28.7576	-26.9294	195.757	-23.2528	-52.5147	204.11	-21.1768	-71.8232	207.68	-41.9167	-11.6264	217.41	-44.4358	-27.9135	236.424	-40.6521	-40.5629	184.311	-21.5162	20.8084	182.145	-18.2734	50.231	150.744	-12.9044	28.2093	
111	0.925	124.457	-33.9263	37.3637	106.342	-37.2506	18.1188	84.8667	-35.6674	-1.04217	70.4408	-37.0812	-16.2571	139.203	-27.5103	-36.3856	128.788	-27.9778	-61.4535	120.974	-26.065	-83.929	168.959	-23.3143	-38.6315	167.903	-21.1958	-64.5045	172.365	-14.4652	-97.8713	192.115	-31.9992	-28.1317	196.629	-29.1095	-51.3175	207.661	-24.722	-75.6609	206.002	-45.6448	-9.64553	220.379	-48.0694	-26.2262	236.365	-44.93	-38.2576	180.96	-21.7793	15.6634	185.295	-17.657	46.863	150.238	-13.9239	30.5328	
112	0.933333	124.061	-34.7454	36.899	108.519	-39.8596	14.4335	87.0846	-40.9937	-3.13201	70.1171	-43.0016	-18.2823	137.475	-34.3726	-36.0364	130.813	-36.4174	-63.3185	125.291	-36.6971	-82.5504	167.006	-28.2025	-43.6553	171.609	-27.3821	-64.7217	170.709	-22.7534	-97.0963	190.096	-34.3394	-30.7361	198.732	-32.741	-52.6836	210.196	-30.351	-76.9095	209.903	-48.3123	-8.63672	225.75	-50.2324	-23.9767	239.383	-48.8333	-39.5862	185.087	-22.5227	14.4963	184.115	-17.1983	44.6164	151.191	-18.2419	26.576	
113	0.941667	121.952	-35.878	38.9312	104.489	-42.6483	19.2819	85.6817	-44.8151	-5.8001	71.6237	-49.6396	-16.1997	140.955	-39.2305	-37.2193	129.557	-43.869	-59.241	127.591	-45.3073	-87.6151	172.986	-34.7464	-39.9362	175.088	-34.2808	-69.6389	173.948	-32.2893	-93.8379	190.859	-39.8083	-30.2755	203.718	-38.4106	-49.9908	211.013	-36.2793	-76.5525	212.942	-51.169	-9.71583	224.769	-53.569	-25.6163	240.838	-52.8862	-35.0952	183.87	-26.7056	14.083	181.681	-19.283	47.0138	150.445	-20.114	27.7456	
114	0.95	123.523	-38.9798	36.5867	108.278	-46.6293	19.0783	91.1665	-52.0592	-2.07249	74.0218	-55.6509	-19.0748	140.522	-46.9815	-37.3326	132.747	-53.7194	-61.9128	129.786	-57.5189	-85.7422	175.148	-40.4765	-41.6304	172.95	-43.9445	-65.1392	174.946	-43.6739	-94.2916	191.949	-45.1616	-29.7716	204.327	-45.8203	-51.4449	213.256	-46.4072	-70.2058	214.254	-54.5547	-4.99688	227.695	-59.084	-21.3937	242.32	-59.0204	-31.6474	185.938	-27.3666	18.8489	181.497	-18.5097	41.4083	150.053	-22.3004	27.2638	
115	0.958333	123.98	-40.3891	41.1967	106.98	-49.8652	20.3532	89.3845	-56.285	-0.233023	77.238	-63.8509	-16.3372	145.179	-55.0286	-35.0917	134.388	-64.8766	-59.9502	127.256	-72.5055	-84.1227	173.357	-49.3383	-39.6568	178.198	-55.0157	-67.5266	176.726	-57.3217	-97.0457	196.282	-54.2258	-23.1164	202.578	-56.46	-47.0128	215.101	-58.6897	-68.8153	212.968	-61.511	-4.87692	226.237	-67.5567	-19.5404	240.112	-66.5138	-31.157	185.76	-32.0989	19.329	182.733	-21.3111	44.3331	154.884	-23.6214	23.791	
